<svg xmlns="http://www.w3.org/2000/svg" width="46" height="40"><g fill="none" fill-rule="evenodd"><path fill="#193D44" fill-rule="nonzero" d="M11.914 10.397C13.72 6.054 18.004 3 23 3c4.997 0 9.28 3.054 11.086 7.397a7.5 7.5 0 017.61 12.511A7.163 7.163 0 0145 28.943V31h-7.9c.582 1.415.9 2.959.9 4.564V38H8v-2.436c0-1.605.318-3.15.9-4.564H1v-2.057a7.163 7.163 0 013.304-6.035 7.5 7.5 0 017.61-12.511z"/><path fill="#FFF" d="M11.304 12.303C11.105 13.17 11 14.073 11 15c0 1.668.34 3.257.955 4.7H5.65a4.451 4.451 0 003.85 2.2 4.453 4.453 0 002.975-1.131 12 12 0 00.571.935 5.5 5.5 0 11-1.742-9.402zm21.65 9.401a12 12 0 00.57-.935A4.453 4.453 0 0036.5 21.9a4.451 4.451 0 003.85-2.2h-6.305A11.96 11.96 0 0035 15c0-.927-.105-1.83-.304-2.697a5.5 5.5 0 11-1.742 9.402z"/><path fill="#769AA0" d="M14.22 25.044A12.017 12.017 0 009.955 29H3v-.057c0-2.3 1.505-4.25 3.585-4.916a5.969 5.969 0 002.915.755 5.973 5.973 0 002.915-.755 5.154 5.154 0 011.806 1.017zM36.046 29a12.017 12.017 0 00-4.267-3.956 5.154 5.154 0 011.806-1.017 5.969 5.969 0 002.915.755 5.973 5.973 0 002.915-.755A5.164 5.164 0 0143 28.943V29h-6.954z"/><path fill="#FFF" d="M23 25c-5.523 0-10-4.477-10-10S17.477 5 23 5s10 4.477 10 10-4.477 10-10 10zm-7-6a8.093 8.093 0 007 4 8.093 8.093 0 007-4H16z"/><path fill="#769AA0" d="M28.929 26C33.022 27.252 36 31.06 36 35.564V36H10v-.436c0-4.504 2.978-8.312 7.071-9.564A11.945 11.945 0 0023 27.564c2.156 0 4.18-.568 5.929-1.564z"/></g></svg>