<svg xmlns="http://www.w3.org/2000/svg" width="46" height="40"><g fill="none" fill-rule="evenodd"><path fill="#193D44" fill-rule="nonzero" d="M35.994 5.057L44 12.89l-8.155 7.94-.432-.42v13.03c0 3.241-5.324 4.559-12.389 4.559-7.065 0-12.388-1.318-12.388-4.559V20.366l-.477.465L2 12.887l8.054-7.842a7.26 7.26 0 013.923-1.96l6.705-1.07.348 1.927c.135.749 1.009 1.45 1.994 1.45.987 0 1.862-.704 1.995-1.454L25.363 2l6.713 1.087a7.259 7.259 0 013.918 1.97z"/><path fill="#769AA0" d="M34.446 6.493l6.532 6.447-5.268 5.174-2.437-2.394v17.873c0 1.426-4.626 2.581-10.332 2.581-5.707 0-10.333-1.155-10.333-2.58V15.675l-2.482 2.438L4.86 12.94l6.572-6.456a5.198 5.198 0 012.818-1.42l4.73-.76c.297 1.659 1.957 3.104 3.962 3.104 2.007 0 3.67-1.451 3.963-3.114l4.728.772a5.198 5.198 0 012.814 1.427zM17.933 26.499h2.602V13.922h-2.041c-.42.435-1.839 1.164-2.29 1.397v1.926c.483-.249 1.277-.513 1.729-.761v10.015zm8.272.233c2.244 0 3.428-1.49 3.428-3.602v-5.7c0-2.205-1.075-3.695-3.428-3.695-2.368 0-3.443 1.49-3.443 3.695v5.699c0 2.143 1.169 3.602 3.443 3.602zm0-2.313c-.716 0-.779-.87-.779-1.351v-5.575c0-.512-.015-1.444.78-1.444.778 0 .778.932.778 1.444v5.575c0 .481-.046 1.35-.779 1.35z"/><path fill="#F4F9F9" d="M22.918 9.294a6.018 6.018 0 01-5.873-4.68l1.934-.31c.296 1.652 1.945 3.093 3.94 3.103h.022c2.007 0 3.67-1.45 3.963-3.113l4.728.772a5.198 5.198 0 012.814 1.427l6.532 6.447-5.268 5.174-2.437-2.394v17.873c0 1.426-4.626 2.581-10.332 2.581h-.023V24.39c.387 1.435 1.493 2.343 3.287 2.343 2.244 0 3.428-1.49 3.428-3.602V17.43c0-2.205-1.075-3.695-3.428-3.695-1.851 0-2.912.91-3.287 2.362V9.294zm3.287 15.125c-.716 0-.779-.87-.779-1.351v-5.575c0-.512-.015-1.444.78-1.444.778 0 .778.932.778 1.444v5.575c0 .481-.046 1.35-.779 1.35z"/></g></svg>