<svg width="277" height="86" viewBox="0 0 277 86" fill="none" xmlns="http://www.w3.org/2000/svg">
<path d="M112 0.591866C112 1.1252 112.667 2.05853 113.467 2.59187C116 4.19186 120 14.3252 120 19.3919V24.4585H60C7.6 24.4585 0 24.7252 0 26.4585C0 28.1919 2.8 28.4585 17.3333 28.4585H34.6667V31.9252C34.6667 36.3252 22.9333 58.0585 20.8 57.3919C20 57.1252 19.0667 52.5919 18.6667 46.5919C18 35.3919 16.8 33.7919 10 33.7919C4.26667 33.7919 2 35.5252 4.66667 37.7919C6.26667 39.1252 7.2 39.1252 8.26667 38.0585C9.2 37.1252 11.0667 36.4585 12.4 36.4585C14.2667 36.4585 14.6667 36.9919 14 38.7252C10.2667 47.2585 13.2 56.0585 21.0667 60.7252L24.9333 62.9919L32.4 49.6585C36.8 41.9252 40 34.5919 40 32.3252C40 28.5919 40.2667 28.4585 46.1333 28.4585H52.2667L51.7333 34.5919C51.3333 40.0585 51.4667 40.5919 54 39.7919C60.4 37.7919 68 37.5252 70 39.1252C74 42.4585 72.2667 44.0585 65.0667 43.5252C57.0667 42.9919 52.9333 44.5919 48.9333 50.1919L46.1333 53.7919L48.9333 57.3919C52.5333 62.3252 59.2 63.7919 66.1333 61.3919C70.8 59.7919 71.8667 59.9252 74.6667 61.6585L77.7333 63.6585L77.0667 50.5919C76.4 34.5919 75.3333 33.2585 63.7333 34.0585C56.4 34.5919 56 34.4585 56 31.5252V28.4585H88.6667H121.333V44.4585C121.333 58.9919 121.6 60.4585 124 61.7919C126.533 63.1252 126.667 62.8585 126.667 54.3252C126.667 46.8585 127.2 44.7252 130 40.9919C131.867 38.5919 134.533 36.1919 136.133 35.7919C137.5 35 142.4 34.7667 142 34.5C141.733 34.2333 136.5 33 132.267 35.6585L126.667 37.6585V33.1252V28.4585H140H153.333V39.7919C153.333 50.3252 153.6 51.3919 157.2 55.3919C160.533 59.2585 162 59.7919 167.6 59.7919C171.067 59.7919 175.467 59.2585 177.333 58.7252L180.667 57.6585L180.267 66.0585C179.867 76.3252 178.267 79.7919 172.667 82.4585C167.067 84.9919 160.933 84.9919 156 82.4585C149.067 78.8585 151.467 72.9919 160.4 71.5252C164.667 70.8585 164.933 70.5919 163.6 68.3252C161.467 64.9919 155.867 65.1252 151.467 68.5919C145.867 72.9919 147.333 80.0585 154.667 83.7919C159.733 86.3252 173.6 86.4585 178.667 83.7919C186 80.0585 186.667 77.6585 186.667 56.1919C186.667 38.1919 186.4 36.4585 184.133 35.1252C180.133 33.1252 180 33.2585 180 41.2585C180 50.0585 177.2 55.6585 171.6 57.9252C168.4 59.2585 166.933 59.2585 164.133 57.6585C160.8 55.7919 160.667 55.2585 160.267 42.0585C160 31.1252 160.267 28.4585 161.733 28.4585C163.067 28.4585 163.867 30.7252 164.267 35.9252C164.667 41.1252 165.733 44.1919 167.733 46.1919C170.4 48.8585 170.8 48.8585 172.933 46.8585C174.533 45.2585 175.067 42.3252 175.067 36.5919L174.933 28.4585H182.133C187.6 28.4585 189.333 27.9252 189.333 26.4585C189.333 24.9919 187.6 24.4585 182.133 24.4585C174 24.4585 174.533 25.2585 171.867 10.4585C170.133 0.191864 169.467 0.858536 166.667 15.3919L165.067 24.4585H146C127.467 24.4585 126.933 24.4585 126.133 21.3919C125.733 19.7919 125.333 17.3919 125.333 16.0585C125.333 14.7252 124.133 10.7252 122.533 7.1252C120.267 1.9252 119.067 0.591866 115.867 0.191864C113.733 -0.208138 112 0.0585327 112 0.591866ZM70 48.9919C72.1333 50.4585 72.2667 51.2585 70.9333 52.8585C66.1333 58.4585 51.4667 61.3919 49.7333 56.8585C49.2 55.3919 50.2667 53.3919 53.0667 50.8585C57.8667 46.5919 65.6 45.7919 70 48.9919Z" fill="#EE2923"/>
<path d="M199.6 25.2596C199.2 25.793 200.266 27.9263 202 30.0596C206.4 35.2596 206.4 41.6596 202.133 46.7263C198.933 50.4596 198.933 50.7263 201.333 52.193C205.733 54.993 208.4 61.6596 207.466 67.9263C206.8 73.2596 207.066 73.9263 211.066 76.993C218.933 82.993 226.666 85.793 236.133 85.793C246.666 85.793 254.533 83.2596 263.066 76.993L269.466 72.3263L268.533 65.9263C267.6 58.8596 270 52.3263 274.666 49.5263C277.066 48.0596 277.066 47.793 273.866 44.0596C270.266 39.6596 269.6 33.1263 272.666 28.993C273.733 27.393 274.266 25.793 273.866 25.393C273.466 24.993 269.066 26.193 264.266 28.0596C244.8 35.393 224.266 34.4596 202.533 25.2596C201.466 24.7263 200.133 24.7263 199.6 25.2596ZM251.2 42.7263C250.266 45.9263 249.066 52.0596 248.533 56.4596L247.6 64.4596H236.533H225.333V58.0596C225.333 54.593 224.533 48.4596 223.6 44.4596L221.866 37.1263H237.333H252.933L251.2 42.7263Z" fill="white"/>
<path d="M92.1346 36.1917C89.7346 37.7917 88.8013 38.0583 88.268 36.725C88.0013 35.925 86.668 35.125 85.2013 35.125C82.9346 35.125 82.668 36.1917 82.668 47.525C82.668 59.125 83.7346 63.125 86.9346 63.125C87.468 63.125 88.0013 59.925 88.0013 56.0583C88.0013 39.7917 101.735 28.9917 108.801 39.7917C111.601 44.0583 110.268 49.925 105.201 55.6583L101.468 60.0583L104.801 61.925C108.001 63.525 108.401 63.3917 110.801 60.4583C118.935 49.7917 112.935 33.6583 100.801 33.925C97.7346 33.925 93.868 34.9917 92.1346 36.1917Z" fill="#EE2923"/>
<path d="M142.265 38.1928C143.065 41.9261 140.665 44.0594 135.332 44.7261C129.865 45.2594 130.132 48.1928 136.532 56.3261C141.065 62.0594 142.132 62.7261 144.399 61.5261C146.799 60.3261 146.665 59.9261 142.532 55.6594C140.132 53.2594 138.399 50.9928 138.799 50.7261C139.065 50.4594 140.932 49.6594 142.932 48.7261C147.732 46.7261 149.199 41.2594 145.999 37.7928C140 32.5 142 34 142.265 38.1928Z" fill="#EE2923"/>
<path d="M235.461 60.0156C235.031 60.0156 234.816 59.8398 234.816 59.4883V58.9258C234.816 58.6211 234.945 58.3398 235.203 58.082L239.797 53.4531C241.156 52.0859 242.047 51.0312 242.469 50.2891C242.898 49.5391 243.113 48.6758 243.113 47.6992C243.113 46.8789 242.871 46.1836 242.387 45.6133C241.91 45.043 241.184 44.7578 240.207 44.7578C239.332 44.7578 238.605 44.9805 238.027 45.4258C237.449 45.8711 237.031 46.6172 236.773 47.6641C236.664 48.1094 236.434 48.2812 236.082 48.1797L235.168 47.9102C234.926 47.8398 234.867 47.5078 234.992 46.9141C235.219 45.8906 235.766 44.9844 236.633 44.1953C237.508 43.3984 238.668 43 240.113 43C241.949 43 243.289 43.4609 244.133 44.3828C244.984 45.3047 245.41 46.4336 245.41 47.7695C245.41 49.0742 245.059 50.1992 244.355 51.1445C243.66 52.0898 242.703 53.1523 241.484 54.332L237.629 58.0703V58.1172C237.84 58.1016 238.152 58.0938 238.566 58.0938H244.953C245.383 58.0938 245.598 58.2695 245.598 58.6211V59.4883C245.598 59.8398 245.383 60.0156 244.953 60.0156H235.461Z" fill="white"/>
<path d="M226.04 46.5273C225.938 46.2773 226.032 46.0977 226.321 45.9883C226.922 45.7617 227.493 45.3984 228.032 44.8984C228.571 44.3984 228.997 43.9531 229.309 43.5625C229.536 43.2812 229.754 43.1406 229.965 43.1406H230.961C231.321 43.1406 231.501 43.3164 231.501 43.668V59.4883C231.501 59.8398 231.325 60.0156 230.973 60.0156H229.965C229.614 60.0156 229.438 59.8398 229.438 59.4883V46.6445C229.438 46.4102 229.446 46.1758 229.461 45.9414H229.438C229.196 46.2461 228.84 46.5586 228.372 46.8789C227.903 47.1992 227.473 47.4336 227.083 47.582C226.739 47.7148 226.512 47.6523 226.403 47.3945L226.04 46.5273Z" fill="white"/>
</svg>
