<svg xmlns="http://www.w3.org/2000/svg" width="30" height="30"><defs><linearGradient id="a" x1="50%" x2="50%" y1="0%" y2="100%"><stop offset="0%" stop-color="#FFF"/><stop offset="100%" stop-color="#E8E8E8"/></linearGradient></defs><g fill="none" fill-rule="evenodd"><path fill="#1A2226" d="M27.5 15v.022c0 .306-.013.612-.039.913a12.48 12.48 0 01-6.81 10.216 12.418 12.418 0 01-6.59 1.31 11.96 11.96 0 01-1.31-.164 12.486 12.486 0 01-8.285-5.568 12.296 12.296 0 01-1.927-5.798l-.039-.91V15a12.404 12.404 0 011.022-4.957c.125-.289.258-.569.405-.84a12.485 12.485 0 0110.082-6.66 12.44 12.44 0 019.086 2.931c.237.203.465.414.69.63A12.476 12.476 0 0127.5 15z"/><path fill="#DD4B39" d="M10.655 3.273a12.595 12.595 0 018.691 0 4.428 4.428 0 00-.73.319 3.141 3.141 0 00-.824.641 10.019 10.019 0 00-5.584 0 3.127 3.127 0 00-.823-.641 4.452 4.452 0 00-.73-.319zm4.592 7.515c.549-.521 1.59-.942 2.239-1.308.655-.37 1.35-.686 2.054-.995.7.23 1.391.573 2.073 1.023.695.457 1.38 1.027 2.056 1.702.195.848.277 1.696.258 2.543a11.8 11.8 0 01-.345 2.542c-.572.509-1.18.96-1.827 1.35-.635.383-1.308.707-2.022.968l-4.504-2.646.018-5.179zm10.47-2.228c.055.273.084.544.09.812a4.95 4.95 0 01-.04.738c-.257.138-.535.27-.839.395-.306.127-.64.247-1.004.358a13.598 13.598 0 00-2.078-1.71 9.21 9.21 0 00-2.138-1.06 11.388 11.388 0 00-.64-1.953 8.622 8.622 0 00-.938-1.645c.184-.198.412-.376.691-.53a4.64 4.64 0 011.166-.433 12.528 12.528 0 015.73 5.028zm1.151 2.503a5.646 5.646 0 00-.68-.892c.029-.219.044-.44.045-.663.245.501.458 1.02.635 1.555zm-.683 9.524c.028-.17.054-.339.076-.505.074-.56.106-1.092.098-1.598a5.66 5.66 0 00.944-1.286l.006-.012a12.398 12.398 0 01-1.124 3.401zm-2.914 3.786a12.03 12.03 0 01-1.547.545 7.918 7.918 0 01-1.52.264 9.453 9.453 0 01-1.18-.87 5.04 5.04 0 01-.792-.864 14.408 14.408 0 001.662-4.439c.733-.27 1.426-.604 2.081-.999a12.717 12.717 0 001.826-1.34c.376.218.734.472 1.077.76.367.31.718.66 1.055 1.049.008.489-.023 1.005-.094 1.548-.074.563-.19 1.154-.35 1.776a12.56 12.56 0 01-2.218 2.57z"/><path fill="url(#a)" d="M12.254 8.288v5.188l-4.487 2.637a11.725 11.725 0 01-2.021-.968 12.26 12.26 0 01-1.828-1.35 11.801 11.801 0 01-.345-2.542c-.02-.847.063-1.695.258-2.543a13.308 13.308 0 012.056-1.702 8.772 8.772 0 012.074-1.023c.702.309 1.4.626 2.053.995.649.366 1.69.787 2.24 1.308zM1.784 6.06a12.569 12.569 0 015.73-5.028c.459.11.844.256 1.166.433.278.154.507.332.69.53a8.588 8.588 0 00-.937 1.645 11.28 11.28 0 00-.64 1.953 9.21 9.21 0 00-2.139 1.06 13.632 13.632 0 00-2.078 1.71c-.363-.111-.697-.23-1.004-.358a8.895 8.895 0 01-.838-.395 4.665 4.665 0 01.05-1.55zM.632 8.563c.178-.535.39-1.054.635-1.555.002.224.017.444.045.663a5.572 5.572 0 00-.68.892zM.01 13a12.603 12.603 0 01.13-2.383c.194-.533.41-1.04.662-1.501.226-.412.481-.785.777-1.107.256.136.532.266.831.389.302.124.626.241.976.35a10.687 10.687 0 00-.238 2.512c.018.85.134 1.697.335 2.543a7.894 7.894 0 00-1.135.802c-.348.294-.681.62-1 .978a5.209 5.209 0 01-.776-1.088A6.303 6.303 0 01.01 13zm1.306 5.086c-.53-1.057-.913-2.2-1.125-3.4l.006.011c.254.472.567.901.945 1.286-.008.506.024 1.039.098 1.598.022.166.047.334.076.505zm2.914 3.786a12.528 12.528 0 01-2.218-2.57 14.911 14.911 0 01-.35-1.776 10.398 10.398 0 01-.095-1.548 9.56 9.56 0 011.055-1.048 7.548 7.548 0 011.078-.76c.573.502 1.18.95 1.826 1.34.654.394 1.348.728 2.08.998a14.408 14.408 0 001.663 4.439c-.21.3-.478.587-.794.865-.342.302-.74.59-1.179.869a7.92 7.92 0 01-1.52-.264 11.93 11.93 0 01-1.546-.545zm3.803 2.305a12.46 12.46 0 01-2.723-1.452c.118.037.237.071.356.104a8.345 8.345 0 001.54.272c.167.364.42.69.733.989.03.03.062.058.094.087zm1.579-2.98c1.793.442 3.983.442 5.777 0 .23.328.518.638.855.935.333.294.715.575 1.136.847a2.868 2.868 0 01-.612.803 6.484 6.484 0 01-1.099.812 12.6 12.6 0 01-6.338 0 6.467 6.467 0 01-1.099-.812 2.877 2.877 0 01-.611-.803c.42-.272.803-.553 1.136-.847a5.41 5.41 0 00.855-.934zm2.888-7.34l4.472 2.592a14.096 14.096 0 01-1.63 4.322c-1.764.443-3.92.443-5.684 0A14.096 14.096 0 018.03 16.45l4.471-2.592zM9.781 2.156a9.572 9.572 0 015.438 0c.38.502.697 1.056.959 1.654.249.568.448 1.178.602 1.823-.679.301-1.354.611-2.002.977-.66.372-1.714.798-2.278 1.325-.563-.527-1.618-.953-2.277-1.325a22.971 22.971 0 00-2.003-.977 10.89 10.89 0 01.603-1.823 8.134 8.134 0 01.958-1.654zM24.99 13a6.275 6.275 0 01-.562 1.495c-.213.396-.47.76-.775 1.088a9.821 9.821 0 00-1.001-.978 7.89 7.89 0 00-1.134-.802c.2-.846.316-1.694.335-2.543a10.753 10.753 0 00-.238-2.512c.35-.109.673-.226.975-.35.299-.123.575-.253.831-.39.297.323.552.696.777 1.108.253.461.469.968.661 1.501A12.603 12.603 0 0124.99 13zm-8.022 11.177l.094-.087a3.25 3.25 0 00.732-.989 8.354 8.354 0 001.54-.272c.12-.033.238-.067.357-.104-.838.59-1.751 1.08-2.723 1.452z" transform="translate(2.5 2.5)"/><path fill="#1A2226" fill-rule="nonzero" d="M13.419 10.226c.128.066-.822-.413-1.027-.529-.538-.303-1.087-.566-1.943-.944a8.588 8.588 0 00-1.924.964c-.658.433-1.313.973-1.966 1.619a10.043 10.043 0 00-.236 2.411c.017.79.125 1.593.32 2.413a11.94 11.94 0 001.732 1.27c.593.359 1.216.661 1.867.908l4.262-2.505v-4.934c-.241-.208-.584-.415-1.085-.673zm1.335.562v5.188l-4.487 2.637a11.725 11.725 0 01-2.021-.968 12.26 12.26 0 01-1.828-1.35 11.801 11.801 0 01-.345-2.542c-.02-.847.063-1.695.258-2.543a13.308 13.308 0 012.056-1.702 8.772 8.772 0 012.074-1.023c.702.309 1.4.626 2.053.995.649.366 1.69.787 2.24 1.308zm-10.31-1.41c-.005.186.003.377.023.572.22.114.452.222.7.324.263.109.543.21.841.306a13.721 13.721 0 012.009-1.636 9.542 9.542 0 012.064-1.043c.164-.666.37-1.286.623-1.861a8.935 8.935 0 01.84-1.516 2.614 2.614 0 00-.485-.34 4.319 4.319 0 00-1.023-.39A12.284 12.284 0 004.52 8.652c-.045.24-.07.482-.077.726zm-.16-.818a12.569 12.569 0 015.73-5.028c.459.11.844.256 1.166.433.278.154.507.332.69.53a8.588 8.588 0 00-.937 1.645 11.28 11.28 0 00-.64 1.953 9.21 9.21 0 00-2.139 1.06 13.632 13.632 0 00-2.078 1.71c-.363-.111-.697-.23-1.004-.358a8.895 8.895 0 01-.838-.395 4.665 4.665 0 01.05-1.55zm-.55 1.62l-.17.023a5.734 5.734 0 01-.014-.117c.026-.03.053-.058.08-.087l.13.123-.026.059zm.078-.01l-.078.01-.06.142c-.19.22-.365.46-.526.716l-.006-.003c.096-.287.201-.569.317-.846l.09-.103a5.703 5.703 0 01-.008-.089c.072-.165.148-.328.226-.489.001.178.011.355.03.53l-.037.084.052.049zm-.68.893c.178-.535.39-1.054.635-1.555.002.224.017.444.045.663a5.572 5.572 0 00-.68.892zm1.555 5.852c.327-.276.664-.52 1.011-.733a12.328 12.328 0 01-.3-2.416c-.018-.793.047-1.575.198-2.347-.274-.09-.534-.187-.78-.289a9.722 9.722 0 01-.678-.308 5.595 5.595 0 00-.616.915c-.232.423-.443.906-.634 1.419a12.353 12.353 0 00-.13 2.31c.128.516.306.986.535 1.412.16.299.346.576.559.832a9.85 9.85 0 01.835-.795zM2.51 15.5a12.603 12.603 0 01.13-2.383c.194-.533.41-1.04.662-1.501.226-.412.481-.785.777-1.107.256.136.532.266.831.389.302.124.626.241.976.35a10.687 10.687 0 00-.238 2.512c.018.85.134 1.697.335 2.543a7.894 7.894 0 00-1.135.802c-.348.294-.681.62-1 .978a5.209 5.209 0 01-.776-1.088A6.303 6.303 0 012.51 15.5zm.563 2.303a5.71 5.71 0 01-.376-.606l-.006-.012c.043.244.093.485.15.723.12.173.25.34.39.499-.058-.2-.11-.4-.158-.604zm.39.855l-.071-.179-.001.104.072.075zm.236 1.075a12.347 12.347 0 00.117.853 12.42 12.42 0 01-.362-.79 11.308 11.308 0 01-.06-.866c.093.27.194.539.305.803zm.117.853c-.53-1.057-.913-2.2-1.125-3.4l.006.011c.254.472.567.901.945 1.286-.008.506.024 1.039.098 1.598.022.166.047.334.076.505zm4.525 4.09c.481.13.942.213 1.39.25a8.944 8.944 0 001.079-.802c.262-.23.482-.462.661-.695a14.628 14.628 0 01-.964-2.082 14.973 14.973 0 01-.618-2.154 12.461 12.461 0 01-1.993-.97 12.91 12.91 0 01-1.724-1.247 7.387 7.387 0 00-.889.645c-.33.279-.653.596-.967.952-.003.45.028.924.094 1.42.072.553.187 1.135.312 1.672a12.279 12.279 0 002.143 2.492c.514.217 1.002.39 1.476.518zm-1.61-.304a12.528 12.528 0 01-2.218-2.57 14.911 14.911 0 01-.351-1.776 10.398 10.398 0 01-.095-1.548 9.56 9.56 0 011.055-1.048 7.548 7.548 0 011.078-.76c.573.502 1.18.95 1.826 1.34.654.394 1.348.728 2.08.998a14.408 14.408 0 001.663 4.439c-.21.3-.478.587-.794.865-.342.302-.74.59-1.179.869a7.92 7.92 0 01-1.52-.264 11.93 11.93 0 01-1.546-.545zm1.746 1.292c-.227-.14-.45-.286-.667-.44a10.488 10.488 0 00.763.205c.21.13.424.253.642.37a8.646 8.646 0 01-.738-.135zm1.21.186l-.208-.145c.02.045.042.09.065.133l.143.012zm.418.382a3.93 3.93 0 00.428.445 12.4 12.4 0 01-.582-.24 3.412 3.412 0 01-.303-.416c.15.073.303.143.457.21zm.428.445a12.46 12.46 0 01-2.723-1.452c.118.037.237.071.356.104a8.345 8.345 0 001.54.272c.167.364.42.69.733.989.03.03.062.058.094.087zm.89-1.858c-.283.25-.606.496-.97.741.115.184.266.363.451.54.275.262.623.516.99.752a12.4 12.4 0 006.145.028 6.155 6.155 0 001.057-.78c.185-.176.336-.356.452-.54a9.28 9.28 0 01-.97-.74 5.849 5.849 0 01-.793-.84c-1.746.398-3.823.398-5.57 0a5.92 5.92 0 01-.792.839zm.689-1.121c1.793.44 3.983.44 5.777 0 .23.327.518.637.855.934.333.294.715.575 1.136.847a2.868 2.868 0 01-.612.803 6.484 6.484 0 01-1.099.812 12.6 12.6 0 01-6.338 0 6.467 6.467 0 01-1.099-.812 2.877 2.877 0 01-.611-.803c.42-.272.803-.553 1.136-.847a5.41 5.41 0 00.855-.934zm-1.302-4.623a13.836 13.836 0 001.511 3.98c1.671.398 3.687.398 5.358 0a13.836 13.836 0 001.511-3.98L15 16.647l-4.19 2.43zM15 16.358l4.472 2.592a14.096 14.096 0 01-1.63 4.322c-1.764.443-3.92.443-5.684 0a14.096 14.096 0 01-1.629-4.322L15 16.358zM11.552 6.41a10.54 10.54 0 00-.54 1.58c.768.343 1.304.603 1.834.902.125.07.266.144.473.249l.558.281c.494.254.85.465 1.123.683.274-.218.63-.429 1.124-.683.131-.068.678-.342.558-.281.206-.105.348-.179.473-.25a21.221 21.221 0 011.832-.9 10.407 10.407 0 00-.538-1.581 7.93 7.93 0 00-.881-1.538 9.335 9.335 0 00-5.136 0 7.955 7.955 0 00-.88 1.538zm.73-1.754a9.572 9.572 0 015.437 0c.38.502.697 1.056.959 1.654.249.568.448 1.178.602 1.823-.679.301-1.354.611-2.002.977-.66.372-1.714.798-2.278 1.325-.563-.527-1.618-.953-2.277-1.325a22.971 22.971 0 00-2.003-.977 10.89 10.89 0 01.603-1.823 8.134 8.134 0 01.958-1.654zm14.426 12.222a6.01 6.01 0 00.533-1.412 12.931 12.931 0 00-.117-2.263 10.31 10.31 0 00-.646-1.467 5.56 5.56 0 00-.615-.915c-.215.109-.44.212-.677.31-.25.102-.51.198-.781.288.15.772.215 1.554.198 2.348a12.379 12.379 0 01-.3 2.415c.346.212.682.457 1.01.733.287.242.566.507.836.795a4.98 4.98 0 00.559-.832zm.782-1.377a6.275 6.275 0 01-.562 1.495c-.213.396-.47.76-.775 1.088a9.821 9.821 0 00-1.001-.978 7.89 7.89 0 00-1.134-.802c.2-.846.316-1.694.335-2.543a10.753 10.753 0 00-.238-2.512c.35-.109.673-.226.975-.35.299-.123.575-.253.831-.39.297.323.552.696.777 1.108.253.461.469.968.661 1.501a12.603 12.603 0 01.131 2.383zm-6.969 10.205l-.208.145c.048-.003.095-.007.143-.012.023-.044.045-.088.065-.133zm.906-.276a9.35 9.35 0 00.764-.204c-.218.153-.44.3-.668.439a8.657 8.657 0 01-.738.135c.218-.116.432-.24.642-.37zm-1.377 1.008a14.81 14.81 0 01-.582.24l.094-.087a3.98 3.98 0 00.333-.358c.154-.067.306-.138.457-.211a3.424 3.424 0 01-.302.416zm-.582.24l.094-.087a3.25 3.25 0 00.732-.989 8.354 8.354 0 001.54-.272c.12-.033.238-.067.357-.104-.838.59-1.751 1.08-2.723 1.452zM11.505 3.373c.3.166.56.358.78.578a10.294 10.294 0 015.431 0 3.461 3.461 0 01.923-.654 12.364 12.364 0 00-7.277 0c.049.025.097.05.143.076zm-.85-.1a12.595 12.595 0 018.691 0 4.428 4.428 0 00-.73.319 3.141 3.141 0 00-.824.641 10.019 10.019 0 00-5.584 0 3.127 3.127 0 00-.823-.641 4.452 4.452 0 00-.73-.319zm4.825 12.551l4.278 2.514a11.457 11.457 0 001.868-.908 12.015 12.015 0 001.732-1.27c.195-.819.302-1.622.32-2.413.017-.815-.06-1.618-.237-2.411a12.944 12.944 0 00-1.966-1.62 8.572 8.572 0 00-1.923-.963c-.851.375-1.404.64-1.943.944-.206.116-1.16.597-1.028.53-.501.257-.843.465-1.085.673l-.016 4.924zm-.233-5.036c.549-.521 1.59-.942 2.239-1.308.655-.37 1.35-.686 2.054-.995.7.23 1.391.573 2.073 1.023.695.457 1.38 1.027 2.056 1.702.195.848.277 1.696.258 2.543a11.8 11.8 0 01-.345 2.542c-.572.509-1.18.96-1.827 1.35-.635.383-1.308.707-2.022.968l-4.504-2.646.018-5.179zm8.415-4.452a12.28 12.28 0 00-3.698-2.541 4.313 4.313 0 00-1.022.39 2.613 2.613 0 00-.485.339c.322.465.602.97.84 1.515.252.576.458 1.196.622 1.862a9.542 9.542 0 012.065 1.043 13.69 13.69 0 012.008 1.636c.299-.095.578-.197.841-.306.248-.102.481-.21.7-.324a4.362 4.362 0 00-.054-1.299 12.292 12.292 0 00-1.817-2.315zm2.054 2.224c.056.273.085.544.091.812a4.95 4.95 0 01-.04.738c-.257.138-.535.27-.839.395-.306.127-.64.247-1.004.358a13.598 13.598 0 00-2.078-1.71 9.21 9.21 0 00-2.138-1.06 11.388 11.388 0 00-.64-1.953 8.622 8.622 0 00-.938-1.645c.184-.198.412-.376.691-.53a4.64 4.64 0 011.166-.433 12.528 12.528 0 015.73 5.028zm.72 1.643l-.17-.022a12.23 12.23 0 00-.025-.06l.13-.122.08.087a5.734 5.734 0 01-.014.117zm-.232-.165c.019-.175.028-.352.03-.53.078.161.154.324.226.49l-.01.088.092.104c.115.277.221.558.317.844l-.007.003a5.817 5.817 0 00-.526-.714l-.06-.142-.077-.01.052-.05a12.237 12.237 0 00-.037-.083zm.664 1.025a5.646 5.646 0 00-.68-.892c.029-.219.044-.44.045-.663.245.501.458 1.02.635 1.555zm-.26 7.417l-.07.179.072-.075-.001-.104zm.552-.572c.057-.238.107-.478.15-.722l-.007.012c-.113.21-.238.412-.375.606-.048.203-.1.404-.158.604.139-.16.269-.326.39-.5zm-.613 1.888a12.42 12.42 0 01-.362.791 14.152 14.152 0 00.117-.853c.11-.264.212-.532.304-.803-.008.281-.028.57-.06.865zm-.362.791c.028-.17.054-.339.076-.505.074-.56.106-1.092.098-1.598a5.66 5.66 0 00.944-1.286l.006-.012a12.398 12.398 0 01-1.124 3.401zm-2.523 3.075a13.18 13.18 0 001.584-1.922c.158-.611.273-1.193.345-1.745.065-.497.096-.97.093-1.42a9.24 9.24 0 00-.967-.953 7.388 7.388 0 00-.889-.645 12.91 12.91 0 01-1.724 1.247c-.634.382-1.298.706-1.993.97a14.629 14.629 0 01-1.582 4.236c.18.233.4.464.661.695.306.27.665.535 1.078.802.45-.037.91-.12 1.391-.25.475-.13.964-.302 1.476-.519.183-.162.359-.327.527-.496zm-.391.71c-.513.219-1.028.405-1.547.546a7.918 7.918 0 01-1.52.264 9.453 9.453 0 01-1.18-.87 5.04 5.04 0 01-.792-.864 14.408 14.408 0 001.662-4.439c.733-.27 1.426-.604 2.081-.999a12.717 12.717 0 001.826-1.34c.376.218.734.472 1.077.76.367.31.718.66 1.055 1.049.008.489-.023 1.005-.094 1.548-.074.563-.19 1.154-.35 1.776a12.56 12.56 0 01-2.218 2.57z"/><path fill="#000" fill-opacity=".2" d="M20.96 25.981c-5.576 3.027-12.437 1.372-16.067-3.627C17.5 26.984 27.48 13.12 24.187 7.053c-.266-.49-.56-.955-.88-1.394a12.475 12.475 0 012.674 3.376c3.293 6.066 1.045 13.653-5.02 16.946z"/></g></svg>